<svg width="60" height="60" viewBox="0 0 60 60" fill="none" xmlns="http://www.w3.org/2000/svg">
<g clip-path="url(#clip0_54679_31332)">
<path d="M20.219 0.0103422C19.1904 0.143152 18.2862 0.612227 17.3848 1.48821C15.6357 3.18649 14.3612 6.08292 14.0419 9.07818C13.9854 9.62076 13.9769 10.7567 14.0278 11.254C14.2256 13.232 14.8755 14.9473 15.9493 16.3262C16.2008 16.6484 16.7547 17.2163 17.0683 17.4707C19.5663 19.4911 22.8357 19.1351 25.003 16.6088C26.1559 15.2666 26.8737 13.5542 27.1336 11.5366C27.1958 11.0393 27.2043 9.53598 27.1477 9.04992C26.933 7.25556 26.4809 5.70424 25.7462 4.2405C24.5933 1.93468 23.0617 0.47094 21.4087 0.0894632C21.1148 0.0216452 20.4705 -0.0207411 20.219 0.0103422Z" fill="#974067"/>
<path d="M38.9368 0.0216456C37.1453 0.275963 35.4781 1.77361 34.2489 4.23202C33.5086 5.70989 33.0621 7.2471 32.8445 9.04992C32.788 9.53598 32.7965 11.0393 32.8586 11.5366C33.1836 14.0572 34.2715 16.1906 35.902 17.4933C38.0495 19.2113 40.7821 19.2029 42.9239 17.4707C43.2376 17.2163 43.7915 16.6484 44.0429 16.3262C44.9416 15.1733 45.5858 13.6672 45.8458 12.13C46.0069 11.189 46.0464 9.99654 45.9503 9.09234C45.6338 6.08004 44.3538 3.17801 42.5962 1.47691C41.8078 0.713958 40.9515 0.227925 40.1067 0.0640318C39.8297 0.0103426 39.1826 -0.0150893 38.9368 0.0216456Z" fill="#974067"/>
<path d="M3.91452 13.8989C1.83476 14.1165 0.387979 16.1256 0.0375859 19.2791C-0.0189292 19.8019 -0.010452 21.3165 0.0545403 21.8505C0.184525 22.9413 0.416237 23.8936 0.769458 24.7893C1.80651 27.4201 3.88909 29.3445 6.24576 29.8503C7.95816 30.2148 9.65646 29.7231 10.8659 28.508C11.8606 27.5077 12.4596 26.1174 12.6207 24.4502C12.6631 24.0264 12.6376 22.9809 12.5755 22.5711C12.3239 20.8559 11.6656 19.313 10.5466 17.8069C9.45582 16.3403 8.14752 15.2044 6.75438 14.5177C6.00558 14.1476 5.39522 13.961 4.71704 13.896C4.36947 13.865 4.25644 13.865 3.91452 13.8989Z" fill="#974067"/>
<path d="M55.2303 13.8961C54.5973 13.9639 53.9587 14.1617 53.2381 14.5178C51.4183 15.4135 49.7116 17.1146 48.5728 19.1605C47.4142 21.2402 47.0554 23.5715 47.5725 25.6513C47.9596 27.2139 48.8497 28.5053 50.0451 29.24C52.1785 30.5511 54.9647 30.0566 57.1151 27.9853C58.6749 26.4848 59.6356 24.3966 59.9352 21.8647C59.9974 21.3448 60.0199 20.1778 59.9804 19.6324C59.8561 17.9369 59.4067 16.5241 58.6579 15.47C58.4319 15.1507 57.9515 14.676 57.6576 14.4811C57.2338 14.2013 56.7336 14.0006 56.2702 13.9244C56.0074 13.882 55.4959 13.8679 55.2303 13.8961Z" fill="#974067"/>
<path d="M29.191 25.0889C24.472 25.3404 19.6032 27.8129 15.1216 32.2324C13.2594 34.072 11.6826 35.9794 10.0974 38.3106C7.89046 41.5546 6.65278 44.3153 6.19216 46.9998C6.04522 47.8588 6.01984 48.1951 6.02266 49.2745C6.02266 50.337 6.05656 50.7467 6.20632 51.5267C6.6019 53.5951 7.57396 55.4375 8.8936 56.6215C9.95608 57.5766 11.2418 58.2379 12.5671 58.5148C13.1266 58.6306 13.4996 58.6617 14.158 58.6476C14.8192 58.6334 15.0537 58.6024 15.602 58.4582C16.4497 58.235 17.0346 57.9214 18.4023 56.9663C19.3235 56.322 19.6371 56.1242 20.1203 55.8868C20.8324 55.5364 21.2704 55.4262 21.9429 55.4234C22.6494 55.4234 23.2512 55.576 24.0255 55.9546C24.5822 56.2259 24.9948 56.4774 26.0685 57.1979C27.309 58.0288 27.8234 58.3085 28.6004 58.5685C29.1684 58.7578 29.4594 58.8086 29.9963 58.8086C30.5333 58.8086 30.8243 58.7578 31.3923 58.5685C32.1693 58.3085 32.6837 58.0288 33.9242 57.1979C34.9979 56.4774 35.4105 56.2259 35.9672 55.9546C36.7414 55.576 37.3433 55.4234 38.0498 55.4234C38.7223 55.4262 39.1602 55.5364 39.8724 55.8868C40.3556 56.1242 40.6692 56.322 41.5904 56.9663C42.9581 57.9214 43.543 58.235 44.3907 58.4582C44.939 58.6024 45.1735 58.6334 45.8347 58.6476C46.4903 58.6617 46.8661 58.6306 47.4228 58.5148C48.9826 58.1898 50.582 57.2714 51.6162 56.1044C52.8652 54.7 53.6196 52.9339 53.9079 50.7496C53.9927 50.111 53.9983 48.5087 53.922 47.8475C53.5999 45.1066 52.56 42.4673 50.5735 39.342C49.2398 37.2425 47.6884 35.2192 46.0749 33.4673C45.4899 32.8343 44.2212 31.5797 43.673 31.0936C39.7508 27.6123 35.7835 25.6399 31.7624 25.1708C30.8723 25.0691 30.0585 25.0437 29.191 25.0889ZM26.5206 35.1288C26.9474 35.2277 27.2723 35.3464 27.7272 35.5724C28.4478 35.9257 29.0384 36.3637 29.6403 36.9825L29.9963 37.3527L30.3524 36.9825C30.9543 36.3637 31.5449 35.9257 32.2654 35.5724C32.9662 35.2249 33.5172 35.0695 34.1389 35.0412C34.7379 35.0129 35.1844 35.1091 35.6874 35.3662C36.7075 35.8918 37.51 37.0108 37.7643 38.2682C38.1599 40.2265 37.397 42.3203 35.4614 44.6008C34.656 45.5502 33.4042 46.7794 32.37 47.6384C31.9235 48.0115 31.3244 48.4636 31.1464 48.5653C30.5502 48.9044 29.7477 48.9524 29.0949 48.6811C28.8519 48.5822 28.7304 48.5059 28.3009 48.1781C27.5831 47.63 27.0293 47.1496 26.1985 46.3527C24.1838 44.4256 22.9828 42.7527 22.4375 41.1194C22.3074 40.7351 22.1831 40.1813 22.1577 39.8648C22.1492 39.7631 22.1351 39.5963 22.1266 39.4946C22.104 39.2459 22.1577 38.6186 22.2284 38.2682C22.4826 37.0108 23.288 35.8861 24.3053 35.3662C24.8168 35.1034 25.1643 35.0299 25.7859 35.0468C26.1222 35.0554 26.2918 35.0751 26.5206 35.1288Z" fill="#974067"/>
</g>
<defs>
<clipPath id="clip0_54679_31332">
<rect width="60" height="59.4" fill="white"/>
</clipPath>
</defs>
</svg>
