<svg width="390" height="120" viewBox="0 0 390 120" fill="none" xmlns="http://www.w3.org/2000/svg">
<path d="M50 10C22.3992 10 0 32.3992 0 60C0 87.6008 22.3992 110 50 110C77.6008 110 100 87.6008 100 60C100 32.3992 77.6008 10 50 10ZM70.3024 83.5685C69.4556 83.5685 68.9315 83.3064 68.1452 82.8427C55.5645 75.2621 40.9274 74.9395 26.4718 77.9032C25.6855 78.1048 24.6573 78.4274 24.0726 78.4274C22.1169 78.4274 20.8871 76.875 20.8871 75.2419C20.8871 73.1653 22.1169 72.1774 23.629 71.8548C40.1411 68.2056 57.0161 68.5282 71.4113 77.1371C72.6411 77.9234 73.3669 78.629 73.3669 80.4637C73.3669 82.2984 71.9355 83.5685 70.3024 83.5685ZM75.7258 70.3427C74.6774 70.3427 73.9718 69.879 73.246 69.496C60.6452 62.0363 41.8548 59.0323 25.1411 63.5686C24.1734 63.8306 23.6492 64.0927 22.7419 64.0927C20.5847 64.0927 18.8306 62.3387 18.8306 60.1815C18.8306 58.0242 19.879 56.5927 21.9556 56.0081C27.5605 54.4355 33.2863 53.2661 41.6734 53.2661C54.7581 53.2661 67.3992 56.5121 77.3589 62.4395C78.9919 63.4073 79.6371 64.6573 79.6371 66.4113C79.6169 68.5887 77.9234 70.3427 75.7258 70.3427ZM81.9758 54.9798C80.9274 54.9798 80.2823 54.7177 79.375 54.1935C65.0202 45.625 39.3548 43.5685 22.7419 48.2056C22.0161 48.4073 21.1089 48.7298 20.1411 48.7298C17.4798 48.7298 15.4435 46.6532 15.4435 43.9718C15.4435 41.2298 17.1371 39.6774 18.9516 39.1532C26.0484 37.0766 33.9919 36.0887 42.6411 36.0887C57.3589 36.0887 72.7823 39.1532 84.0524 45.7258C85.625 46.6331 86.6532 47.8831 86.6532 50.2823C86.6532 53.0242 84.4355 54.9798 81.9758 54.9798Z" fill="#D00000"/>
<path d="M196.16 32.16L180.56 88H167.36L156.88 48.24L145.92 88L132.8 88.08L117.76 32.16H129.76L139.6 75.52L150.96 32.16H163.44L174.16 75.28L184.08 32.16H196.16ZM244.673 64.88C244.673 66.48 244.566 67.92 244.353 69.2H211.953C212.22 72.4 213.34 74.9067 215.313 76.72C217.286 78.5333 219.713 79.44 222.593 79.44C226.753 79.44 229.713 77.6533 231.473 74.08H243.553C242.273 78.3467 239.82 81.8667 236.193 84.64C232.566 87.36 228.113 88.72 222.833 88.72C218.566 88.72 214.726 87.7867 211.313 85.92C207.953 84 205.313 81.3067 203.393 77.84C201.526 74.3733 200.593 70.3733 200.593 65.84C200.593 61.2533 201.526 57.2267 203.393 53.76C205.26 50.2933 207.873 47.6267 211.233 45.76C214.593 43.8933 218.46 42.96 222.833 42.96C227.046 42.96 230.806 43.8667 234.113 45.68C237.473 47.4933 240.06 50.08 241.873 53.44C243.74 56.7467 244.673 60.56 244.673 64.88ZM233.073 61.68C233.02 58.8 231.98 56.5067 229.953 54.8C227.926 53.04 225.446 52.16 222.513 52.16C219.74 52.16 217.393 53.0133 215.473 54.72C213.606 56.3733 212.46 58.6933 212.033 61.68H233.073ZM264.048 50.16C265.488 48.0267 267.461 46.2933 269.968 44.96C272.528 43.6267 275.435 42.96 278.688 42.96C282.475 42.96 285.888 43.8933 288.928 45.76C292.021 47.6267 294.448 50.2933 296.208 53.76C298.021 57.1733 298.928 61.1467 298.928 65.68C298.928 70.2133 298.021 74.24 296.208 77.76C294.448 81.2267 292.021 83.92 288.928 85.84C285.888 87.76 282.475 88.72 278.688 88.72C275.381 88.72 272.475 88.08 269.968 86.8C267.515 85.4667 265.541 83.76 264.048 81.68V88H252.848V28.8H264.048V50.16ZM287.488 65.68C287.488 63.0133 286.928 60.72 285.808 58.8C284.741 56.8267 283.301 55.3333 281.488 54.32C279.728 53.3067 277.808 52.8 275.728 52.8C273.701 52.8 271.781 53.3333 269.968 54.4C268.208 55.4133 266.768 56.9067 265.648 58.88C264.581 60.8533 264.048 63.1733 264.048 65.84C264.048 68.5067 264.581 70.8267 265.648 72.8C266.768 74.7733 268.208 76.2933 269.968 77.36C271.781 78.3733 273.701 78.88 275.728 78.88C277.808 78.88 279.728 78.3467 281.488 77.28C283.301 76.2133 284.741 74.6933 285.808 72.72C286.928 70.7467 287.488 68.4 287.488 65.68ZM327.387 52.88H319.627V88H308.267V52.88H303.227V43.68H308.267V41.44C308.267 36 309.814 32 312.907 29.44C316 26.88 320.667 25.68 326.907 25.84V35.28C324.187 35.2267 322.294 35.68 321.227 36.64C320.16 37.6 319.627 39.3333 319.627 41.84V43.68H327.387V52.88ZM377.045 43.68L349.605 108.96H337.685L347.285 86.88L329.525 43.68H342.085L353.525 74.64L365.125 43.68H377.045Z" fill="white"/>
<path d="M383.895 37.38C384.915 37.38 385.82 37.61 386.61 38.07C387.41 38.52 388.03 39.155 388.47 39.975C388.92 40.785 389.145 41.71 389.145 42.75C389.145 43.79 388.92 44.72 388.47 45.54C388.03 46.35 387.41 46.985 386.61 47.445C385.82 47.895 384.915 48.12 383.895 48.12C382.865 48.12 381.95 47.895 381.15 47.445C380.36 46.985 379.74 46.35 379.29 45.54C378.85 44.72 378.63 43.79 378.63 42.75C378.63 41.71 378.85 40.785 379.29 39.975C379.74 39.155 380.36 38.52 381.15 38.07C381.95 37.61 382.865 37.38 383.895 37.38ZM383.895 38.145C382.995 38.145 382.21 38.335 381.54 38.715C380.87 39.085 380.355 39.62 379.995 40.32C379.635 41.01 379.455 41.82 379.455 42.75C379.455 43.67 379.635 44.48 379.995 45.18C380.355 45.87 380.87 46.41 381.54 46.8C382.21 47.18 382.995 47.37 383.895 47.37C384.785 47.37 385.565 47.18 386.235 46.8C386.905 46.41 387.42 45.87 387.78 45.18C388.14 44.48 388.32 43.67 388.32 42.75C388.32 41.82 388.14 41.01 387.78 40.32C387.42 39.62 386.905 39.085 386.235 38.715C385.575 38.335 384.795 38.145 383.895 38.145ZM383.88 39.33C383.25 39.33 382.685 39.47 382.185 39.75C381.685 40.03 381.29 40.43 381 40.95C380.72 41.46 380.58 42.055 380.58 42.735C380.58 43.415 380.72 44.015 381 44.535C381.29 45.055 381.685 45.455 382.185 45.735C382.685 46.015 383.25 46.155 383.88 46.155C384.65 46.155 385.315 45.945 385.875 45.525C386.435 45.095 386.8 44.53 386.97 43.83H385.125C385.015 44.11 384.855 44.325 384.645 44.475C384.445 44.625 384.175 44.7 383.835 44.7C383.375 44.7 383.01 44.535 382.74 44.205C382.48 43.865 382.35 43.375 382.35 42.735C382.35 42.095 382.48 41.61 382.74 41.28C383.01 40.95 383.375 40.785 383.835 40.785C384.155 40.785 384.425 40.86 384.645 41.01C384.875 41.16 385.035 41.375 385.125 41.655H386.97C386.8 40.935 386.435 40.37 385.875 39.96C385.325 39.54 384.66 39.33 383.88 39.33Z" fill="white"/>
</svg>
